<svg width="50" height="34" viewBox="0 0 50 34" fill="none" xmlns="http://www.w3.org/2000/svg">
<path d="M49.0234 9.22151C49.5628 9.22151 50 8.7842 50 8.24495V1.81702C50 1.27776 49.5628 0.840454 49.0234 0.840454H43.75C42.8812 0.840454 42.1438 1.41096 41.8909 2.1968H28.1493C28.139 2.19163 28.1293 2.18577 28.1187 2.18098C25.467 0.976196 22.5545 0.634106 19.6963 1.19211L11.8078 2.73147H8.2C8.1667 1.68342 7.30596 0.840454 6.25 0.840454H0.976562C0.437207 0.840454 0 1.27776 0 1.81702V8.09514C0 8.6344 0.437207 9.0717 0.976562 9.0717C1.51592 9.0717 1.95312 8.6344 1.95312 8.09514V2.79358H6.25V21.308H1.95312V16.103C1.95312 15.5637 1.51592 15.1264 0.976562 15.1264C0.437207 15.1264 0 15.5637 0 16.103V22.2846C0 22.8239 0.437207 23.2612 0.976562 23.2612H6.25C7.32695 23.2612 8.20312 22.385 8.20312 21.308V21.2973C8.65127 21.4231 9.07529 21.6336 9.44541 21.9203L9.90137 22.2735C9.98799 23.0485 10.3632 23.7919 11.0111 24.3257C11.5887 24.8014 12.2879 25.033 12.9834 25.033C13.0533 25.033 13.1231 25.0298 13.1929 25.0251C13.292 25.815 13.6818 26.5256 14.2988 27.0338C14.8764 27.5095 15.5756 27.7412 16.2712 27.7411C16.3411 27.7411 16.4108 27.738 16.4806 27.7333C16.5797 28.5232 16.9696 29.2338 17.5866 29.7421C18.1481 30.2045 18.8379 30.4512 19.5561 30.4512C19.6271 30.4512 19.6984 30.4479 19.7699 30.443C19.8658 31.2017 20.2388 31.9269 20.8742 32.4504C21.4357 32.9128 22.1255 33.1595 22.8437 33.1595C22.9446 33.1595 23.0463 33.1545 23.1481 33.1447C23.974 33.065 24.7193 32.6683 25.2469 32.0279L26.041 31.0638C26.2747 30.7802 26.449 30.467 26.5664 30.1395C27.0288 30.3864 27.5469 30.5175 28.0844 30.5175C28.1002 30.5175 28.116 30.5173 28.1318 30.5171C28.9956 30.5048 29.8028 30.1569 30.4049 29.5373C30.7225 29.2106 30.9564 28.8331 31.1083 28.4318L31.4453 28.7593C32.0728 29.3691 32.886 29.6726 33.6988 29.6726C34.5425 29.6726 35.3854 29.3452 36.0185 28.694C36.3779 28.3241 36.6303 27.8895 36.7773 27.4285C37.2292 27.6526 37.7223 27.7651 38.2154 27.7651C39.0591 27.7651 39.9021 27.4378 40.5351 26.7864C41.1371 26.1669 41.4619 25.3501 41.4495 24.4863C41.4372 23.6225 41.0893 22.8153 40.4706 22.2141L39.7921 21.553L41.7969 20.4708V21.308C41.7969 22.385 42.673 23.2612 43.75 23.2612H49.0234C49.5628 23.2612 50 22.8239 50 22.2846V15.81C50 15.2707 49.5628 14.8334 49.0234 14.8334C48.4841 14.8334 48.0469 15.2707 48.0469 15.81V21.308H43.75V18.8397C43.75 18.837 43.75 18.8344 43.75 18.8318V2.79358H48.0469V8.24495C48.0469 8.7842 48.4841 9.22151 49.0234 9.22151ZM14.6703 21.6971L13.8762 22.6612C13.4719 23.1521 12.7438 23.2226 12.2529 22.8181C11.7621 22.4138 11.6917 21.6856 12.096 21.1948L12.8902 20.2308C13.086 19.993 13.3628 19.8457 13.6693 19.8161C13.7071 19.8124 13.7448 19.8106 13.7823 19.8106C14.0488 19.8106 14.3051 19.9022 14.5134 20.0739C15.0042 20.4781 15.0745 21.2064 14.6703 21.6971ZM17.9579 24.4055L17.1638 25.3696C16.7596 25.8603 16.0312 25.9308 15.5405 25.5264C15.3027 25.3306 15.1556 25.0539 15.1259 24.7473C15.0963 24.4406 15.1878 24.1409 15.3837 23.9031L16.1779 22.939C16.3737 22.7012 16.6504 22.554 16.957 22.5244C16.9948 22.5207 17.0325 22.5189 17.07 22.5189C17.3365 22.5189 17.5928 22.6105 17.8011 22.7822C18.0389 22.978 18.186 23.2547 18.2157 23.5613C18.2453 23.8679 18.1538 24.1675 17.9579 24.4055ZM21.2457 27.1134L20.4515 28.0776C20.2557 28.3154 19.979 28.4625 19.6724 28.4921C19.3654 28.5221 19.0658 28.4304 18.8282 28.2345C18.5904 28.0387 18.4432 27.7619 18.4135 27.4553C18.3839 27.1488 18.4754 26.849 18.6713 26.6112L19.4654 25.6471C19.6932 25.3707 20.0235 25.2277 20.3565 25.2277C20.6147 25.2277 20.8744 25.3137 21.0888 25.4903C21.5796 25.8946 21.65 26.6227 21.2457 27.1134ZM24.5332 29.8218L23.739 30.7859C23.5432 31.0237 23.2664 31.1709 22.9599 31.2005C22.6529 31.2306 22.3534 31.1386 22.1157 30.9427C21.6249 30.5384 21.5545 29.8102 21.9588 29.3195L22.753 28.3554C22.9488 28.1176 23.2256 27.9704 23.5322 27.9408C23.57 27.9371 23.6077 27.9353 23.6452 27.9353C23.9118 27.9353 24.168 28.0269 24.3764 28.1986C24.6142 28.3944 24.7613 28.671 24.791 28.9777C24.8206 29.2843 24.7291 29.584 24.5332 29.8218ZM39.1341 25.4249C38.6418 25.9316 37.8293 25.9431 37.3228 25.4509L34.085 22.3042C34.0813 22.3007 34.0774 22.2979 34.0738 22.2944L30.8842 19.1946C30.4975 18.8186 29.8791 18.8276 29.5032 19.2142C29.1273 19.601 29.1361 20.2193 29.5229 20.5951L34.5915 25.521C35.098 26.0133 35.1097 26.8259 34.6174 27.3324C34.1252 27.8391 33.3126 27.8506 32.8061 27.3584L27.7374 22.4325C27.7272 22.4226 27.7162 22.4141 27.7057 22.4047L25.2704 20.0381C24.8837 19.6622 24.2654 19.6711 23.8895 20.0577C23.5136 20.4446 23.5224 21.0628 23.9092 21.4387L28.9777 26.3646C29.4843 26.8569 29.4959 27.6695 29.0036 28.176C28.7651 28.4214 28.4454 28.5592 28.1033 28.5641C27.7631 28.5702 27.4378 28.4403 27.1923 28.2018L25.7728 26.8223C25.7409 26.7913 25.7069 26.764 25.6722 26.7382C25.654 26.7226 25.6364 26.7064 25.6178 26.691C24.9818 26.1673 24.1981 25.9402 23.4347 25.9916C23.3391 25.2324 22.966 24.5067 22.3302 23.9828C21.6947 23.4594 20.9115 23.2322 20.1485 23.2833C20.0493 22.4936 19.6596 21.7828 19.0426 21.2746C18.4256 20.7664 17.653 20.5197 16.8593 20.5738C16.7634 19.8151 16.3904 19.0899 15.755 18.5663C15.1146 18.0389 14.3074 17.7927 13.4812 17.8721C12.6553 17.9519 11.91 18.3486 11.3824 18.989L10.5882 19.9531C10.5215 20.034 10.4598 20.1174 10.4026 20.2029C9.74346 19.7467 8.98965 19.4375 8.20283 19.2965V4.68459H11.9019C11.9646 4.68459 12.0272 4.67854 12.089 4.66643L20.0701 3.10901C21.4242 2.84485 22.7924 2.81682 24.1296 3.01711C23.1192 3.47151 22.1879 4.10754 21.3777 4.9092L13.9839 12.2249C12.6431 13.5515 12.6187 15.734 13.9297 17.09C14.5993 17.7828 15.5037 18.1455 16.4192 18.1454C17.0009 18.1453 17.587 17.9989 18.1201 17.6978L25.8683 13.3202H28.5435L39.1081 23.6138C39.3535 23.8522 39.4913 24.1719 39.4962 24.5141C39.5013 24.8561 39.3726 25.1796 39.1341 25.4249ZM41.7969 18.2514L38.3259 20.1245L31.3423 13.3201H32.028C32.5674 13.3201 33.0046 12.8828 33.0046 12.3436C33.0046 11.8043 32.5674 11.367 32.028 11.367H25.6116C25.4433 11.367 25.2778 11.4105 25.1312 11.4934L17.1595 15.9972C16.5618 16.335 15.8112 16.226 15.3341 15.7324C14.763 15.1417 14.7736 14.191 15.3577 13.6132L22.7516 6.29749C24.1513 4.91252 26.0066 4.14993 27.9757 4.14993H41.7969V18.2514Z" fill="white"/>
<path d="M49.7139 11.3608C49.5322 11.1782 49.2803 11.0747 49.0234 11.0747C48.7666 11.0747 48.5146 11.1782 48.333 11.3608C48.1514 11.5425 48.0469 11.7936 48.0469 12.0513C48.0469 12.3081 48.1514 12.5601 48.333 12.7417C48.5146 12.9232 48.7666 13.0278 49.0234 13.0278C49.2803 13.0278 49.5322 12.9233 49.7139 12.7417C49.8955 12.5591 50 12.3081 50 12.0513C50 11.7935 49.8955 11.5425 49.7139 11.3608Z" fill="white"/>
<path d="M1.66699 11.3608C1.48535 11.1782 1.2334 11.0747 0.976562 11.0747C0.719727 11.0747 0.467773 11.1782 0.286133 11.3608C0.104492 11.5425 0 11.7936 0 12.0513C0 12.3081 0.104492 12.5591 0.286133 12.7417C0.467773 12.9233 0.719727 13.0278 0.976562 13.0278C1.2334 13.0278 1.48535 12.9233 1.66699 12.7417C1.84863 12.5591 1.95312 12.3081 1.95312 12.0513C1.95312 11.7935 1.84863 11.5425 1.66699 11.3608Z" fill="white"/>
</svg>
