<svg width="49" height="49" viewBox="0 0 49 49" fill="none" xmlns="http://www.w3.org/2000/svg">
<g clip-path="url(#clip0)">
<path d="M28.6915 38.5667H25.0483C24.5297 38.5667 24.1094 38.9869 24.1094 39.5056C24.1094 40.0242 24.5297 40.4445 25.0483 40.4445H28.6915C29.2538 40.4445 29.7113 40.9019 29.7113 41.4641C29.7113 42.0264 29.2539 42.4838 28.6915 42.4838H18.8842C17.41 42.4838 16.0236 41.8338 15.0808 40.7004L12.7355 37.8814C11.4771 36.3686 9.64553 35.4827 7.68583 35.4266V29.8802H11.1429C12.8477 29.8802 14.462 30.5323 15.6884 31.7162L20.7504 36.6023C21.1082 36.9477 21.1249 37.5261 20.7875 37.8916C20.4437 38.264 19.86 38.2883 19.4864 37.9459L15.5122 34.3029C15.1301 33.9526 14.5361 33.9783 14.1858 34.3606C13.8354 34.7428 13.8612 35.3368 14.2434 35.6871L18.2176 39.3301C18.7536 39.8213 19.4318 40.064 20.1084 40.064C20.8637 40.064 21.6169 39.7615 22.1674 39.1652C23.1915 38.0557 23.1409 36.3 22.0545 35.2513L16.9926 30.3652C15.4142 28.8416 13.3367 28.0025 11.1429 28.0025H7.50347C7.15022 27.1664 6.32174 26.5781 5.35851 26.5781H0.938909C0.420391 26.5781 0 26.9984 0 27.517V34.3827C0 34.9013 0.420391 35.3216 0.938909 35.3216C1.45743 35.3216 1.87782 34.9013 1.87782 34.3827V28.4558H5.35861C5.6065 28.4558 5.80811 28.6575 5.80811 28.9053V36.4308C5.80811 36.6786 5.6065 36.8803 5.35861 36.8803H4.38345C3.86493 36.8803 3.44454 37.3006 3.44454 37.8192C3.44454 38.3377 3.86493 38.7581 4.38345 38.7581H5.35851C6.3347 38.7581 7.17182 38.1538 7.5169 37.2997C8.98062 37.3081 10.3552 37.9563 11.292 39.0824L13.6373 41.9014C14.938 43.465 16.8504 44.3616 18.8842 44.3616H28.6915C30.2891 44.3616 31.589 43.0618 31.589 41.4641C31.589 39.8664 30.2891 38.5667 28.6915 38.5667Z" fill="#006DF0"/>
<path d="M47.1381 12.3886C46.6196 12.3886 46.1992 12.8089 46.1992 13.3276V19.6212H42.7184C42.4705 19.6212 42.2689 19.4195 42.2689 19.1717V11.6463C42.2689 11.3985 42.4705 11.1968 42.7184 11.1968H43.6246C44.1432 11.1968 44.5636 10.7765 44.5636 10.2579C44.5636 9.73934 44.1432 9.31895 43.6246 9.31895H42.7184C41.7422 9.31895 40.9051 9.92329 40.56 10.7773C39.0963 10.769 37.7217 10.1208 36.7849 8.99471L34.4396 6.17573C33.139 4.6122 31.2265 3.71545 29.1926 3.71545H19.3855C17.7879 3.71545 16.488 5.01522 16.488 6.61284C16.488 8.21046 17.7879 9.51023 19.3855 9.51023H23.3958C23.9143 9.51023 24.3347 9.08993 24.3347 8.57132C24.3347 8.05271 23.9143 7.63241 23.3958 7.63241H19.3855C18.8232 7.63241 18.3658 7.17502 18.3658 6.61275C18.3658 6.05057 18.8231 5.59308 19.3855 5.59308H29.1927C30.6671 5.59308 32.0534 6.24306 32.9962 7.37644L35.3415 10.1954C36.5999 11.7082 38.4315 12.5941 40.3912 12.6503V18.1967H36.9342C35.2293 18.1967 33.6151 17.5446 32.3886 16.3607L27.3267 11.4746C26.9688 11.1292 26.9521 10.5508 27.2895 10.1853C27.6333 9.81277 28.217 9.78855 28.5907 10.131L32.5649 13.774C32.9472 14.1243 33.5409 14.0986 33.8914 13.7163C34.2418 13.334 34.2159 12.7401 33.8337 12.3898L29.8594 8.74691C28.7251 7.70715 26.9534 7.78124 25.9096 8.9118C24.8855 10.0213 24.9361 11.7771 26.0225 12.8257L31.0845 17.7118C32.6628 19.2354 34.7403 20.0745 36.9342 20.0745H40.5735C40.9268 20.9106 41.7553 21.4988 42.7185 21.4988H47.1382C47.6567 21.4988 48.0771 21.0786 48.0771 20.5599V13.3274C48.077 12.8089 47.6566 12.3886 47.1381 12.3886Z" fill="#006DF0"/>
<path d="M30.3147 35.6485C30.1011 35.176 29.5462 34.9652 29.074 35.1787C28.5985 35.3857 28.3811 35.939 28.5881 36.4143C28.7419 36.7676 29.0871 36.9785 29.4494 36.9785C29.5745 36.9785 29.7017 36.9534 29.8237 36.9002C29.8277 36.8985 29.8401 36.893 29.8439 36.8913C30.3165 36.6779 30.5281 36.1211 30.3147 35.6485Z" fill="#006DF0"/>
<path d="M32.6486 34.0678C32.3416 33.6509 31.7516 33.5642 31.3342 33.8697C30.9159 34.176 30.825 34.7635 31.1313 35.1819C31.3153 35.4331 31.6004 35.5662 31.8896 35.5662C32.0821 35.5662 32.2763 35.5072 32.4435 35.3849C32.445 35.3839 32.4538 35.3773 32.4552 35.3762C32.8711 35.0683 32.9554 34.4846 32.6486 34.0678Z" fill="#006DF0"/>
<path d="M27.6898 36.7026C27.5828 36.1969 27.0864 35.8732 26.5803 35.9778C26.0747 36.0781 25.7442 36.5678 25.8411 37.0749C25.9271 37.5247 26.3206 37.8376 26.7622 37.8376C26.8207 37.8376 26.8801 37.8321 26.9395 37.8207C26.9456 37.8195 26.961 37.8164 26.9672 37.8151C27.4743 37.7076 27.7971 37.2097 27.6898 36.7026Z" fill="#006DF0"/>
<path d="M34.6098 32.0258C34.2248 31.6785 33.6313 31.709 33.2838 32.0941C33.2792 32.0993 33.2684 32.1115 33.2639 32.1166C32.9251 32.5092 32.9689 33.1021 33.3615 33.4408C33.5389 33.5939 33.7571 33.6688 33.9743 33.6688C34.2351 33.6688 34.4943 33.5608 34.6797 33.3501C35.0254 32.965 34.9943 32.3725 34.6098 32.0258ZM34.0855 32.8174L33.9811 32.723L34.0941 32.8249L34.0855 32.8174Z" fill="#006DF0"/>
<path d="M36.9995 26.9375C36.5033 26.787 35.9784 27.0701 35.8279 27.5664C35.6754 28.062 35.9535 28.5874 36.4491 28.7398C36.5411 28.7682 36.634 28.7816 36.7255 28.7816C37.1268 28.7816 37.4984 28.5223 37.6225 28.1186L37.6265 28.1057C37.7769 27.6095 37.4957 27.0879 36.9995 26.9375Z" fill="#006DF0"/>
<path d="M38.2021 22.0917C38.2001 22.0798 38.1978 22.0678 38.1953 22.0559C38.0893 21.5485 37.592 21.2239 37.0847 21.3297C36.5793 21.435 36.2543 21.9293 36.3561 22.4347C36.4422 22.8827 36.8348 23.1962 37.2768 23.1962C37.3318 23.1962 37.3875 23.1915 37.4434 23.1814C37.9539 23.09 38.2935 22.6021 38.2021 22.0917Z" fill="#006DF0"/>
<path d="M37.3412 24.1288C36.8263 24.0833 36.369 24.4651 36.3235 24.9815C36.3226 24.9906 36.3213 25.0091 36.3207 25.0182C36.2903 25.5359 36.6852 25.9802 37.2028 26.0106C37.2216 26.0118 37.2402 26.0123 37.2588 26.0123C37.7476 26.0123 38.1585 25.6343 38.1944 25.142C38.2372 24.6274 37.8562 24.1742 37.3412 24.1288Z" fill="#006DF0"/>
<path d="M36.0806 29.6091C35.6299 29.3536 35.0565 29.5119 34.8009 29.9631L34.7879 29.9866C34.5406 30.4423 34.7075 31.0164 35.1632 31.2636C35.3066 31.3413 35.4609 31.3782 35.6129 31.3782C35.9443 31.3782 36.2644 31.2025 36.4339 30.89L35.6177 30.4259L36.4345 30.8888C36.6902 30.4377 36.5318 29.8648 36.0806 29.6091Z" fill="#006DF0"/>
<path d="M19.0519 11.7282C18.8201 11.2643 18.2558 11.0762 17.7923 11.3083L17.784 11.3124C17.3201 11.5443 17.1364 12.1061 17.3683 12.5699C17.5325 12.8985 17.8653 13.0876 18.2103 13.0876C18.3525 13.0876 18.4967 13.0555 18.632 12.9878C19.0959 12.756 19.2838 12.192 19.0519 11.7282Z" fill="#006DF0"/>
<path d="M21.768 10.9453C21.6459 10.4415 21.139 10.1318 20.6343 10.2541C20.63 10.2551 20.6166 10.2585 20.6123 10.2596C20.1101 10.389 19.806 10.9014 19.9353 11.4035C20.0445 11.8272 20.4245 12.1088 20.8423 12.1088C20.9196 12.1088 20.9983 12.0991 21.0768 12.0789C21.5807 11.9568 21.8902 11.4493 21.768 10.9453Z" fill="#006DF0"/>
<path d="M16.5693 13.0821C16.2446 12.6787 15.6534 12.6153 15.2495 12.9392L15.8316 13.6759L15.2466 12.9414C14.841 13.2644 14.774 13.855 15.097 14.2607C15.2825 14.4936 15.5561 14.6148 15.8322 14.6148C16.0371 14.6148 16.2436 14.5479 16.4165 14.4104L16.4289 14.4004C16.8317 14.075 16.894 13.4856 16.5693 13.0821Z" fill="#006DF0"/>
<path d="M11.5632 19.7623C11.0629 19.626 10.5468 19.9207 10.4104 20.421C10.408 20.4296 10.4035 20.4473 10.4014 20.4559C10.2793 20.9597 10.5888 21.4663 11.0925 21.5887C11.1668 21.6067 11.2412 21.6153 11.3145 21.6153C11.7357 21.6153 12.1184 21.3295 12.2251 20.9035C12.3538 20.4069 12.0596 19.8977 11.5632 19.7623Z" fill="#006DF0"/>
<path d="M10.9651 22.521C10.4461 22.4922 10.0035 22.8865 9.97344 23.4041C9.97269 23.4162 9.97222 23.4282 9.97185 23.4402C9.95664 23.9583 10.3643 24.3899 10.8824 24.4054C10.892 24.4057 10.9014 24.4059 10.9109 24.4059C11.4142 24.4059 11.83 24.0065 11.8486 23.501C11.8721 22.9884 11.4789 22.5509 10.9651 22.521Z" fill="#006DF0"/>
<path d="M12.7449 17.1964C12.2856 16.9555 11.7182 17.1325 11.4773 17.5917L11.462 17.6219C11.2332 18.087 11.4251 18.6487 11.8901 18.8777C12.0233 18.9434 12.1644 18.9743 12.3036 18.9743C12.6485 18.9743 12.9804 18.7835 13.1449 18.4549C13.3787 17.9973 13.2011 17.4358 12.7449 17.1964Z" fill="#006DF0"/>
<path d="M14.4405 14.9376C14.0415 14.6064 13.4496 14.6613 13.1184 15.0602C13.1139 15.0657 13.1035 15.0785 13.099 15.0841C12.7771 15.4904 12.846 16.0799 13.2521 16.4019C13.4245 16.5388 13.6301 16.6051 13.8345 16.6051C14.1099 16.6051 14.3829 16.4845 14.5684 16.2533C14.8937 15.8545 14.8373 15.2671 14.4405 14.9376Z" fill="#006DF0"/>
<path d="M12.0261 26.1069C11.9348 25.5964 11.4466 25.2568 10.9364 25.3483C10.426 25.4397 10.0863 25.9275 10.1777 26.438L10.1794 26.4472C10.2607 26.901 10.6548 27.2162 11.1 27.2162C11.1555 27.2162 11.2117 27.2113 11.2682 27.2012C11.7787 27.1098 12.1176 26.6173 12.0261 26.1069Z" fill="#006DF0"/>
<path d="M27.2622 18.9796C26.0401 18.9796 24.9078 19.4836 24.1009 20.334C23.2939 19.4836 22.1617 18.9796 20.9396 18.9796C18.5354 18.9796 16.5796 20.9355 16.5796 23.3396C16.5796 24.6368 17.1517 25.8577 18.1491 26.6893C18.1551 26.6944 18.1613 26.6993 18.1675 26.7043L23.5181 30.9403C23.6888 31.0756 23.8948 31.1431 24.1008 31.1431C24.3078 31.1431 24.5147 31.0749 24.6858 30.9386L30.263 26.4961C30.2903 26.4745 30.3163 26.4512 30.341 26.4266C31.1673 25.6026 31.6222 24.5063 31.6222 23.3396C31.6222 20.9355 29.6664 18.9796 27.2622 18.9796ZM29.049 25.0628L24.0992 29.0054L19.3432 25.2401C18.7801 24.7665 18.4574 24.0745 18.4574 23.3398C18.4573 21.971 19.5709 20.8574 20.9396 20.8574C21.9472 20.8574 22.8476 21.4592 23.2335 22.3905C23.379 22.7413 23.7213 22.97 24.1009 22.97C24.4805 22.97 24.8228 22.7414 24.9683 22.3905C25.3542 21.4592 26.2546 20.8574 27.2622 20.8574C28.6309 20.8574 29.7445 21.971 29.7445 23.3397C29.7445 23.9878 29.4978 24.5978 29.049 25.0628Z" fill="#006DF0"/>
<path d="M0.938796 38.7549C1.45553 38.7549 1.87442 38.336 1.87442 37.8193C1.87442 37.3026 1.45553 36.8837 0.938796 36.8837C0.422066 36.8837 0.00317383 37.3026 0.00317383 37.8193C0.00317383 38.336 0.422066 38.7549 0.938796 38.7549Z" fill="#006DF0"/>
<path d="M47.138 11.1933C47.6547 11.1933 48.0736 10.7744 48.0736 10.2576C48.0736 9.74091 47.6547 9.32202 47.138 9.32202C46.6213 9.32202 46.2024 9.74091 46.2024 10.2576C46.2024 10.7744 46.6213 11.1933 47.138 11.1933Z" fill="#006DF0"/>
</g>
<defs>
<clipPath id="clip0">
<rect width="48.0769" height="48.0769" fill="#006DF0"/>
</clipPath>
</defs>
</svg>
