<svg width="50" height="50" viewBox="0 0 50 50" fill="none" xmlns="http://www.w3.org/2000/svg">
<g clip-path="url(#clip0)">
<path d="M44.3609 25.2548L38.9211 16.8545C38.4995 16.2035 37.7847 15.8147 37.009 15.8147H13.0083C12.2338 15.8147 11.5197 16.2025 11.0979 16.8519L5.64124 25.2533C5.08362 26.1117 5.16975 27.2451 5.85071 28.0093L23.2982 47.5972C23.73 48.082 24.3499 48.3601 24.9991 48.3601C24.9992 48.3601 24.9991 48.3601 24.9992 48.3601C25.6484 48.3601 26.2685 48.0821 26.7003 47.5973L44.1497 28.0082C44.8297 27.2449 44.9165 26.1126 44.3609 25.2548ZM35.907 17.7677L31.3322 24.8419L26.7547 17.7677H35.907ZM29.5374 25.6634H20.4609L24.9991 18.6499L29.5374 25.6634ZM23.2436 17.7679L18.6786 24.8227L14.1153 17.7679H23.2436ZM12.3095 18.5721L16.8964 25.6634H7.70373L12.3095 18.5721ZM8.11623 27.6166H17.9448L23.1417 44.4852L8.11623 27.6166ZM24.9991 43.8805L19.9885 27.6166H30.0098L24.9991 43.8805ZM26.8565 44.4858L32.0535 27.6166H41.883L26.8565 44.4858ZM33.1271 25.6634L37.7098 18.577L42.2985 25.6634H33.1271Z" fill="white"/>
<path d="M2.96221 25.6635H0.976562C0.437305 25.6635 0 26.1007 0 26.64C0 27.1794 0.437305 27.6166 0.976562 27.6166H2.96221C3.50146 27.6166 3.93877 27.1794 3.93877 26.64C3.93877 26.1007 3.50146 25.6635 2.96221 25.6635Z" fill="white"/>
<path d="M49.0235 25.6635H47.0378C46.4986 25.6635 46.0613 26.1007 46.0613 26.64C46.0613 27.1794 46.4986 27.6166 47.0378 27.6166H49.0235C49.5627 27.6166 50.0001 27.1794 50.0001 26.64C50.0001 26.1007 49.5627 25.6635 49.0235 25.6635Z" fill="white"/>
<path d="M42.6901 8.96741C42.3086 8.58606 41.6904 8.58606 41.3089 8.96741L38.0651 12.2113C37.6837 12.5926 37.6837 13.211 38.0651 13.5923C38.2559 13.783 38.5058 13.8783 38.7557 13.8783C39.0057 13.8783 39.2555 13.7829 39.4462 13.5923L42.6901 10.3485C43.0714 9.96711 43.0714 9.34885 42.6901 8.96741Z" fill="white"/>
<path d="M11.9771 12.1939L8.73333 8.94995C8.35208 8.5686 7.73391 8.5686 7.35217 8.94995C6.97083 9.3313 6.97083 9.94966 7.35217 10.331L10.596 13.5749C10.7867 13.7656 11.0366 13.8609 11.2865 13.8609C11.5365 13.8609 11.7864 13.7655 11.9771 13.5749C12.3584 13.1936 12.3584 12.5752 11.9771 12.1939Z" fill="white"/>
<path d="M25.0249 1.64001C24.4856 1.64001 24.0483 2.07722 24.0483 2.61658V8.98064C24.0483 9.51999 24.4855 9.9572 25.0249 9.9572C25.5642 9.9572 26.0015 9.51999 26.0015 8.98064V2.61658C26.0015 2.07732 25.5642 1.64001 25.0249 1.64001Z" fill="white"/>
<path d="M25.7147 11.5937C25.5332 11.4121 25.2812 11.3076 25.0244 11.3076C24.7676 11.3076 24.5156 11.4121 24.334 11.5937C24.1523 11.7754 24.0479 12.0273 24.0479 12.2842C24.0479 12.542 24.1522 12.793 24.334 12.9746C24.5156 13.1572 24.7676 13.2607 25.0244 13.2607C25.2812 13.2607 25.5332 13.1572 25.7147 12.9746C25.8974 12.793 26.001 12.541 26.001 12.2842C26.001 12.0273 25.8974 11.7755 25.7147 11.5937Z" fill="white"/>
</g>
<defs>
<clipPath id="clip0">
<rect width="50" height="50" fill="white"/>
</clipPath>
</defs>
</svg>
