<svg width="70" height="70" viewBox="0 0 70 70" fill="none" xmlns="http://www.w3.org/2000/svg">
<path d="M35.008 0H34.9647C22.941 0.0758362 12.921 9.23119 11.7637 21.1994C11.1986 27.5531 12.6315 31.6531 15.4732 36.9974C16.3523 38.552 17.3568 40.0324 18.4762 41.4236C19.2453 42.4314 19.97 43.3836 20.6151 44.401C22.0699 46.7007 22.9874 49.2994 23.2982 52.0028C21.6736 52.9534 20.785 54.7916 21.0483 56.655C21.3115 58.5188 22.6755 60.0382 24.4999 60.5013V65.3334C24.5036 66.934 25.3287 68.4208 26.6852 69.271C26.7541 69.3175 26.8273 69.3565 26.9047 69.3874C27.5931 69.7837 28.3723 69.9947 29.1665 70H40.8335C43.4108 70 45.5001 67.9108 45.5001 65.3334V60.5013C47.333 60.0398 48.7028 58.5124 48.9618 56.64C49.2209 54.7676 48.3172 52.9256 46.6782 51.9841C46.9928 49.2871 47.9103 46.6959 49.3619 44.401C50.007 43.3836 50.7312 42.4314 51.5002 41.4236C52.6196 40.0324 53.6242 38.552 54.5032 36.9974C57.3439 31.6541 58.7778 27.5542 58.2144 21.1994C57.0555 9.22958 47.0334 0.074234 35.008 0ZM27.4527 66.9035C27.0559 66.4768 26.8348 65.9161 26.8332 65.3334V60.6668H38.0623L27.4527 66.9035ZM43.1668 65.3334C43.1668 66.6221 42.1222 67.6667 40.8335 67.6667H30.7601L42.6674 60.6668H43.1668V65.3334ZM44.3332 58.3335H25.6668C24.3781 58.3335 23.3335 57.2889 23.3335 56.0002C23.3335 54.7115 24.3781 53.6669 25.6668 53.6669H44.3332C45.6218 53.6669 46.6665 54.7115 46.6665 56.0002C46.6665 57.2889 45.6218 58.3335 44.3332 58.3335ZM30.3334 30.3334H26.8332C25.5445 30.3334 24.4999 29.2888 24.4999 28.0001C24.4999 26.7114 25.5445 25.6668 26.8332 25.6668H28.0001C29.2888 25.6668 30.3334 26.7114 30.3334 28.0001V30.3334ZM35 32.6667H37.3333V51.3331H32.6667V32.6667H35ZM52.4391 35.9004C51.6193 37.344 50.6831 38.7176 49.6396 40.0084C48.8753 41.0119 48.0855 42.049 47.3864 43.1513C45.8162 45.6331 44.7983 48.4235 44.4021 51.3331H39.6666V32.6667H43.1668C45.7441 32.6667 47.8334 30.5775 47.8334 28.0001C47.8334 25.4227 45.7441 23.3335 43.1668 23.3335H41.9999C39.4225 23.3335 37.3333 25.4227 37.3333 28.0001V30.3334H32.6667V28.0001C32.6667 25.4227 30.5774 23.3335 28.0001 23.3335H26.8332C24.2558 23.3335 22.1666 25.4227 22.1666 28.0001C22.1666 30.5775 24.2558 32.6667 26.8332 32.6667H30.3334V51.3331H25.5712C25.1744 48.4235 24.1565 45.6331 22.5853 43.1513C21.8857 42.049 21.0968 41.0119 20.3326 40.0084C19.2891 38.7176 18.3529 37.344 17.5325 35.9004C14.8425 30.8418 13.5661 27.2113 14.0863 21.4061C15.0727 10.6 24.1346 2.32796 34.9856 2.32796C45.8365 2.32796 54.8979 10.6 55.8843 21.4061C56.4013 27.2124 55.1297 30.8434 52.4391 35.9004ZM39.6666 30.3334V28.0001C39.6666 26.7114 40.7112 25.6668 41.9999 25.6668H43.1668C44.4555 25.6668 45.5001 26.7114 45.5001 28.0001C45.5001 29.2888 44.4555 30.3334 43.1668 30.3334H39.6666Z" fill="#006DF0"/>
<path d="M34.9893 4.6666C25.4099 4.82254 17.445 12.0873 16.4116 21.6122C16.355 22.2542 16.8292 22.8203 17.4706 22.8774H17.5747C18.1804 22.8796 18.6872 22.4176 18.7411 21.8141C19.6501 13.4871 26.6137 7.13768 34.9893 6.99989C35.6339 6.99989 36.1562 6.47758 36.1562 5.83351C36.1562 5.1889 35.6339 4.6666 34.9893 4.6666Z" fill="#006DF0"/>
<path d="M0 23.3335C0 23.9776 0.522308 24.4999 1.16692 24.4999H6.99989C7.6445 24.4999 8.16681 23.9776 8.16681 23.3335C8.16681 22.6889 7.6445 22.1666 6.99989 22.1666H1.16692C0.522308 22.1666 0 22.6889 0 23.3335Z" fill="#006DF0"/>
<path d="M10.1684 36.3229L5.1167 39.2399C4.75301 39.4466 4.52764 39.8327 4.5271 40.2514C4.52604 40.6701 4.74927 41.0567 5.11243 41.2656C5.47559 41.4738 5.9226 41.4722 6.28362 41.2602L11.3353 38.3437C11.8886 38.0196 12.076 37.3093 11.7556 36.7538C11.4351 36.1984 10.7259 36.0062 10.1684 36.3229Z" fill="#006DF0"/>
<path d="M58.2391 36.7501C57.917 37.3082 58.1077 38.0217 58.6658 38.3437L63.7174 41.2602C64.275 41.5775 64.9837 41.3847 65.3046 40.8293C65.6251 40.2744 65.4376 39.5641 64.8843 39.2399L59.8327 36.3229C59.2746 36.0008 58.5611 36.192 58.2391 36.7501Z" fill="#006DF0"/>
<path d="M68.8331 22.1666H63.0002C62.3556 22.1666 61.8333 22.6889 61.8333 23.3335C61.8333 23.9776 62.3556 24.4999 63.0002 24.4999H68.8331C69.4778 24.4999 70.0001 23.9776 70.0001 23.3335C70.0001 22.6889 69.4778 22.1666 68.8331 22.1666Z" fill="#006DF0"/>
<path d="M65.3099 5.8335C64.9878 5.27541 64.2743 5.08421 63.7162 5.40625L58.6646 8.32274C58.3009 8.52996 58.0755 8.91608 58.0745 9.33478C58.0739 9.75348 58.2972 10.1401 58.6603 10.349C59.0229 10.5572 59.47 10.5556 59.8315 10.3436L64.8832 7.42713C65.4407 7.10456 65.6319 6.39105 65.3099 5.8335Z" fill="#006DF0"/>
<path d="M11.3343 8.32275L6.28269 5.40626C5.72513 5.08957 5.01644 5.28183 4.69547 5.83725C4.37504 6.39267 4.56249 7.10243 5.11577 7.42714L10.1674 10.3436C10.5284 10.5556 10.9755 10.5572 11.3386 10.349C11.7018 10.1402 11.925 9.75349 11.9245 9.33479C11.9234 8.91609 11.698 8.52997 11.3343 8.32275Z" fill="#006DF0"/>
</svg>
