<svg width="70" height="52" viewBox="0 0 70 52" fill="none" xmlns="http://www.w3.org/2000/svg">
<path d="M35.0001 0C20.8717 0 9.31201 11.5596 9.31201 25.6881C9.31201 39.8165 20.8717 51.3761 35.0001 51.3761C49.1285 51.3761 60.6881 39.8166 60.6881 25.6882C60.6881 11.5598 49.1285 0 35.0001 0ZM35.0001 49.0409C22.156 49.0409 11.6472 38.5321 11.6472 25.6881C11.6472 12.844 22.156 2.33533 35.0001 2.33533C47.8442 2.33533 58.3529 12.8441 58.3529 25.6882C58.3529 38.5323 47.844 49.0409 35.0001 49.0409Z" fill="#006DF0"/>
<path d="M11.8808 2.56888C12.3478 2.10187 12.3478 1.40129 11.8808 0.934141C11.4138 0.466994 10.7132 0.46713 10.246 0.934141C-3.41535 14.5955 -3.41535 36.7807 10.246 50.4421C10.4796 50.6756 10.7131 50.7924 11.0633 50.7924C11.4136 50.7924 11.6472 50.6756 11.8807 50.4421C12.3477 49.9751 12.3477 49.2745 11.8807 48.8073C-0.846586 36.0801 -0.846585 15.2961 11.8808 2.56888Z" fill="#006DF0"/>
<path d="M59.7538 0.934151C59.2868 0.46714 58.5863 0.46714 58.1191 0.934151C57.652 1.40116 57.6521 2.10175 58.1191 2.56889C70.8463 15.2961 70.8463 36.0802 58.1191 48.8075C57.6521 49.2745 57.6521 49.9751 58.1191 50.4422C58.3527 50.6758 58.5861 50.7925 58.9364 50.7925C59.2867 50.7925 59.5203 50.6758 59.7537 50.4422C73.4152 36.7807 73.4152 14.5955 59.7538 0.934151Z" fill="#006DF0"/>
<path d="M44.3411 35.0292H40.8382V18.6824C40.8382 17.9818 40.3712 17.5148 39.6706 17.5148H29.1618C28.4613 17.5148 27.9943 17.9818 27.9943 18.6824V23.3529C27.9943 24.0535 28.4613 24.5205 29.1618 24.5205H31.4972V35.0292H27.9943C27.2937 35.0292 26.8267 35.4963 26.8267 36.1968V40.8674C26.8267 41.5679 27.2937 42.035 27.9943 42.035H44.3413C45.0419 42.035 45.5089 41.5679 45.5089 40.8674V36.1968C45.5089 35.4964 45.0417 35.0292 44.3411 35.0292ZM43.1735 39.6999H29.1618V37.3646H32.6648C33.3654 37.3646 33.8324 36.8976 33.8324 36.197V23.3529C33.8324 22.6523 33.3654 22.1853 32.6648 22.1853H30.3294V19.85H38.5029V36.197C38.5029 36.8976 38.9699 37.3646 39.6705 37.3646H43.1734V39.6999H43.1735Z" fill="#006DF0"/>
<path d="M35.0001 15.1794C37.5689 15.1794 39.6706 13.0777 39.6706 10.5089C39.6706 7.94013 37.5689 5.83838 35.0001 5.83838C32.4313 5.83838 30.3296 7.94013 30.3296 10.5089C30.3295 13.0777 32.4312 15.1794 35.0001 15.1794ZM35.0001 8.17357C36.2846 8.17357 37.3354 9.22445 37.3354 10.5089C37.3354 11.7933 36.2846 12.8442 35.0001 12.8442C33.7157 12.8442 32.6648 11.7933 32.6648 10.5089C32.6648 9.22445 33.7157 8.17357 35.0001 8.17357Z" fill="#006DF0"/>
</svg>
